# xmcd CD database file
#
# Track frame offsets:
#	150
#	19098
#	41518
#	66292
#	89973
#	109779
#	128178
#	145590
#	164209
#	180900
#	199290
#	222995
#	241976
#	265534
#	289174
#	310418
#	329432
#
# Disc length: 4678 seconds
#
# Revision: 0
# Processed by: cddbd v1.5.1PL0 Copyright (c) Steve Scherf et al.
# Submitted via: CDex 1.51
#
DISCID=06124411
DTITLE=Mimi Ibarra - Compositora, Cantante, Mujer...
DYEAR=2003
DGENRE=Salsa
TTITLE0=A una mujer como yo
TTITLE1=Embrujo de amor
TTITLE2=Que tiene ella
TTITLE3=Que nadie se entere
TTITLE4=No puede ser con Marc Anthony
TTITLE5=Descarado
TTITLE6=Yo te ofrezco mi corazon
TTITLE7=A la fuerza
TTITLE8=Si no estas junto a mi
TTITLE9=Porque te quise tanto
TTITLE10=Duele con Tito Rojas
TTITLE11=Arrancame este amor
TTITLE12=Dile
TTITLE13=Libre de pecado
TTITLE14=Nadie va a separarnos
TTITLE15=Necesito verte
TTITLE16=No mires a nadie
EXTD=YEAR: 2003
EXTT0=
EXTT1=
EXTT2=
EXTT3=
EXTT4=
EXTT5=
EXTT6=
EXTT7=
EXTT8=
EXTT9=
EXTT10=
EXTT11=
EXTT12=
EXTT13=
EXTT14=
EXTT15=
EXTT16=
PLAYORDER=
